#Comment line ignore any data following # character 
#Hierarchical Translation and Rotation (.htr) file 
[Header]	
#Header keywords are followed by a single value 
FileType HTR		#Single word string
DataType HTRS		#Translation followed by rotation and scale data
FileVersion 1		#integer
NumSegments 84		#integer
NumFrames 2		#integer
DataFrameRate 30		#integer, data frame rate in this file
EulerRotationOrder ZYX
CalibrationUnits mm
RotationUnits Degrees
GlobalAxisofGravity Y
BoneLengthAxis Y
ScaleFactor 1.00
[SegmentNames&Hierarchy]
#CHILD	PARENT
MASTER GLOBAL
root MASTER
chest root
L_mid_tent01 root
R_mid_tent01 root
spine01 root
Bip01_Neck chest
L_humerus chest
R_humerus chest
weapon_bone chest
Bip01_Head Bip01_Neck
eye_left_bone Bip01_Head
eye_right_bone Bip01_Head
L_forearm L_humerus
L_front_hand L_forearm
L_weapon_bone L_forearm
L_front_hand01_01 L_front_hand
L_front_hand02_01 L_front_hand
L_front_hand03_01 L_front_hand
L_front_hand01_02 L_front_hand01_01
L_front_hand02_02 L_front_hand02_01
L_front_hand03_02 L_front_hand03_01
R_forearm R_humerus
R_front_hand R_forearm
R_weapon_bone R_forearm
R_front_hand01_01 R_front_hand
R_front_hand02_01 R_front_hand
R_front_hand03_01 R_front_hand
R_front_hand01_02 R_front_hand01_01
R_front_hand02_02 R_front_hand02_01
R_front_hand03_02 R_front_hand03_01
null_rope01_connect L_mid_tent01
Rope1_Seg01 null_rope01_connect
Rope1_Seg02 Rope1_Seg01
Rope1_Seg03 Rope1_Seg02
Rope1_Seg04 Rope1_Seg03
Rope1_Seg05 Rope1_Seg04
Rope1_Seg06 Rope1_Seg05
Rope1_Seg07 Rope1_Seg06
Rope1_Seg09 Rope1_Seg07
L_mid_hand01 Rope1_Seg09
L_mid_hand02 Rope1_Seg09
L_mid_hand03 Rope1_Seg09
null_rope02_connect R_mid_tent01
Rope2_Seg01 null_rope02_connect
Rope2_Seg02 Rope2_Seg01
Rope2_Seg03 Rope2_Seg02
Rope2_Seg04 Rope2_Seg03
Rope2_Seg05 Rope2_Seg04
Rope2_Seg06 Rope2_Seg05
Rope2_Seg07 Rope2_Seg06
Rope2_Seg09 Rope2_Seg07
R_mid_hand01 Rope2_Seg09
R_mid_hand02 Rope2_Seg09
R_mid_hand03 Rope2_Seg09
spine02 spine01
spine03 spine02
pelvis spine03
null_rope03_connect pelvis
null_rope04_connect pelvis
Rope3_Seg01 null_rope03_connect
Rope3_Seg02 Rope3_Seg01
Rope3_Seg03 Rope3_Seg02
Rope3_Seg04 Rope3_Seg03
Rope3_Seg05 Rope3_Seg04
Rope3_Seg06 Rope3_Seg05
Rope3_Seg07 Rope3_Seg06
Rope3_Seg08 Rope3_Seg07
Rope3_Seg09 Rope3_Seg08
R_rear_hand01 Rope3_Seg09
R_rear_hand02 Rope3_Seg09
R_rear_hand03 Rope3_Seg09
Rope4_Seg01 null_rope04_connect
Rope4_Seg02 Rope4_Seg01
Rope4_Seg03 Rope4_Seg02
Rope4_Seg04 Rope4_Seg03
Rope4_Seg05 Rope4_Seg04
Rope4_Seg06 Rope4_Seg05
Rope4_Seg07 Rope4_Seg06
Rope4_Seg08 Rope4_Seg07
Rope4_Seg09 Rope4_Seg08
L_rear_hand01 Rope4_Seg09
L_rear_hand02 Rope4_Seg09
L_rear_hand03 Rope4_Seg09
[BasePosition]
#SegmentName Tx, Ty, Tz, Rx, Ry, Rz, BoneLength
MASTER 0.000000 0.000000 0.000000 -90.000000 0.000000 0.000000 10.000000 
root 0.000000 0.000000 0.000000 0.000000 0.000000 0.000000 10.000000 
chest 0.000000 0.000000 0.000000 0.000000 0.000000 0.000000 10.000000 
L_mid_tent01 0.000000 0.000000 0.000000 0.000000 0.000000 0.000000 10.000000 
R_mid_tent01 0.000000 0.000000 0.000000 0.000000 0.000000 0.000000 10.000000 
spine01 0.000000 0.000000 0.000000 0.000000 0.000000 0.000000 10.000000 
Bip01_Neck 0.000000 0.000000 0.000000 0.000000 0.000000 0.000000 10.000000 
L_humerus 0.000000 0.000000 0.000000 0.000000 0.000000 0.000000 10.000000 
R_humerus 0.000000 0.000000 0.000000 0.000000 0.000000 0.000000 10.000000 
weapon_bone 0.000000 0.000000 0.000000 0.000000 0.000000 0.000000 10.000000 
Bip01_Head 0.000000 0.000000 0.000000 0.000000 0.000000 0.000000 10.000000 
eye_left_bone 0.000000 0.000000 0.000000 0.000000 0.000000 0.000000 10.000000 
eye_right_bone 0.000000 0.000000 0.000000 0.000000 0.000000 0.000000 10.000000 
L_forearm 0.000000 0.000000 0.000000 0.000000 0.000000 0.000000 10.000000 
L_front_hand 0.000000 0.000000 0.000000 0.000000 0.000000 0.000000 10.000000 
L_weapon_bone 0.000000 0.000000 0.000000 0.000000 0.000000 0.000000 10.000000 
L_front_hand01_01 0.000000 0.000000 0.000000 0.000000 0.000000 0.000000 10.000000 
L_front_hand02_01 0.000000 0.000000 0.000000 0.000000 0.000000 0.000000 10.000000 
L_front_hand03_01 0.000000 0.000000 0.000000 0.000000 0.000000 0.000000 10.000000 
L_front_hand01_02 0.000000 0.000000 0.000000 0.000000 0.000000 0.000000 10.000000 
L_front_hand02_02 0.000000 0.000000 0.000000 0.000000 0.000000 0.000000 10.000000 
L_front_hand03_02 0.000000 0.000000 0.000000 0.000000 0.000000 0.000000 10.000000 
R_forearm 0.000000 0.000000 0.000000 0.000000 0.000000 0.000000 10.000000 
R_front_hand 0.000000 0.000000 0.000000 0.000000 0.000000 0.000000 10.000000 
R_weapon_bone 0.000000 0.000000 0.000000 0.000000 0.000000 0.000000 10.000000 
R_front_hand01_01 0.000000 0.000000 0.000000 0.000000 0.000000 0.000000 10.000000 
R_front_hand02_01 0.000000 0.000000 0.000000 0.000000 0.000000 0.000000 10.000000 
R_front_hand03_01 0.000000 0.000000 0.000000 0.000000 0.000000 0.000000 10.000000 
R_front_hand01_02 0.000000 0.000000 0.000000 0.000000 0.000000 0.000000 10.000000 
R_front_hand02_02 0.000000 0.000000 0.000000 0.000000 0.000000 0.000000 10.000000 
R_front_hand03_02 0.000000 0.000000 0.000000 0.000000 0.000000 0.000000 10.000000 
null_rope01_connect 0.000000 0.000000 0.000000 0.000000 0.000000 0.000000 10.000000 
Rope1_Seg01 0.000000 0.000000 0.000000 0.000000 0.000000 0.000000 10.000000 
Rope1_Seg02 0.000000 0.000000 0.000000 0.000000 0.000000 0.000000 10.000000 
Rope1_Seg03 0.000000 0.000000 0.000000 0.000000 0.000000 0.000000 10.000000 
Rope1_Seg04 0.000000 0.000000 0.000000 0.000000 0.000000 0.000000 10.000000 
Rope1_Seg05 0.000000 0.000000 0.000000 0.000000 0.000000 0.000000 10.000000 
Rope1_Seg06 0.000000 0.000000 0.000000 0.000000 0.000000 0.000000 10.000000 
Rope1_Seg07 0.000000 0.000000 0.000000 0.000000 0.000000 0.000000 10.000000 
Rope1_Seg09 0.000000 0.000000 0.000000 0.000000 0.000000 0.000000 10.000000 
L_mid_hand01 0.000000 0.000000 0.000000 0.000000 0.000000 0.000000 10.000000 
L_mid_hand02 0.000000 0.000000 0.000000 0.000000 0.000000 0.000000 10.000000 
L_mid_hand03 0.000000 0.000000 0.000000 0.000000 0.000000 0.000000 10.000000 
null_rope02_connect 0.000000 0.000000 0.000000 0.000000 0.000000 0.000000 10.000000 
Rope2_Seg01 0.000000 0.000000 0.000000 0.000000 0.000000 0.000000 10.000000 
Rope2_Seg02 0.000000 0.000000 0.000000 0.000000 0.000000 0.000000 10.000000 
Rope2_Seg03 0.000000 0.000000 0.000000 0.000000 0.000000 0.000000 10.000000 
Rope2_Seg04 0.000000 0.000000 0.000000 0.000000 0.000000 0.000000 10.000000 
Rope2_Seg05 0.000000 0.000000 0.000000 0.000000 0.000000 0.000000 10.000000 
Rope2_Seg06 0.000000 0.000000 0.000000 0.000000 0.000000 0.000000 10.000000 
Rope2_Seg07 0.000000 0.000000 0.000000 0.000000 0.000000 0.000000 10.000000 
Rope2_Seg09 0.000000 0.000000 0.000000 0.000000 0.000000 0.000000 10.000000 
R_mid_hand01 0.000000 0.000000 0.000000 0.000000 0.000000 0.000000 10.000000 
R_mid_hand02 0.000000 0.000000 0.000000 0.000000 0.000000 0.000000 10.000000 
R_mid_hand03 0.000000 0.000000 0.000000 0.000000 0.000000 0.000000 10.000000 
spine02 0.000000 0.000000 0.000000 0.000000 0.000000 0.000000 10.000000 
spine03 0.000000 0.000000 0.000000 0.000000 0.000000 0.000000 10.000000 
pelvis 0.000000 0.000000 0.000000 0.000000 0.000000 0.000000 10.000000 
null_rope03_connect 0.000000 0.000000 0.000000 0.000000 0.000000 0.000000 10.000000 
null_rope04_connect 0.000000 0.000000 0.000000 0.000000 0.000000 0.000000 10.000000 
Rope3_Seg01 0.000000 0.000000 0.000000 0.000000 0.000000 0.000000 10.000000 
Rope3_Seg02 0.000000 0.000000 0.000000 0.000000 0.000000 0.000000 10.000000 
Rope3_Seg03 0.000000 0.000000 0.000000 0.000000 0.000000 0.000000 10.000000 
Rope3_Seg04 0.000000 0.000000 0.000000 0.000000 0.000000 0.000000 10.000000 
Rope3_Seg05 0.000000 0.000000 0.000000 0.000000 0.000000 0.000000 10.000000 
Rope3_Seg06 0.000000 0.000000 0.000000 0.000000 0.000000 0.000000 10.000000 
Rope3_Seg07 0.000000 0.000000 0.000000 0.000000 0.000000 0.000000 10.000000 
Rope3_Seg08 0.000000 0.000000 0.000000 0.000000 0.000000 0.000000 10.000000 
Rope3_Seg09 0.000000 0.000000 0.000000 0.000000 0.000000 0.000000 10.000000 
R_rear_hand01 0.000000 0.000000 0.000000 0.000000 0.000000 0.000000 10.000000 
R_rear_hand02 0.000000 0.000000 0.000000 0.000000 0.000000 0.000000 10.000000 
R_rear_hand03 0.000000 0.000000 0.000000 0.000000 0.000000 0.000000 10.000000 
Rope4_Seg01 0.000000 0.000000 0.000000 0.000000 0.000000 0.000000 10.000000 
Rope4_Seg02 0.000000 0.000000 0.000000 0.000000 0.000000 0.000000 10.000000 
Rope4_Seg03 0.000000 0.000000 0.000000 0.000000 0.000000 0.000000 10.000000 
Rope4_Seg04 0.000000 0.000000 0.000000 0.000000 0.000000 0.000000 10.000000 
Rope4_Seg05 0.000000 0.000000 0.000000 0.000000 0.000000 0.000000 10.000000 
Rope4_Seg06 0.000000 0.000000 0.000000 0.000000 0.000000 0.000000 10.000000 
Rope4_Seg07 0.000000 0.000000 0.000000 0.000000 0.000000 0.000000 10.000000 
Rope4_Seg08 0.000000 0.000000 0.000000 0.000000 0.000000 0.000000 10.000000 
Rope4_Seg09 0.000000 0.000000 0.000000 0.000000 0.000000 0.000000 10.000000 
L_rear_hand01 0.000000 0.000000 0.000000 0.000000 0.000000 0.000000 10.000000 
L_rear_hand02 0.000000 0.000000 0.000000 0.000000 0.000000 0.000000 10.000000 
L_rear_hand03 0.000000 0.000000 0.000000 0.000000 0.000000 0.000000 10.000000 
#Beginning of Data. Separated by tabs
#Fr	Tx	Ty	Tz	Rx	Ry	Rz	SF
[MASTER]
59 0.000000 0.000000 0.000000 0.001660 0.001660 0.001660 0.000000
60 0.000000 0.000000 0.000000 0.001660 0.001660 0.001660 0.000000
[root]
59 -29.400152 -62.547661 1564.516724 -108.622375 22.994953 -90.428398 1566.042480
60 -30.297144 -63.172661 1561.083252 -108.647156 23.193024 -90.495338 1562.654663
[chest]
59 -86.836586 -33.005978 -30.127222 -2.145468 -9.217001 -178.910614 97.660828
60 -86.836586 -33.005978 -30.127222 -2.145468 -9.217001 -178.910614 97.660828
[L_mid_tent01]
59 27.299463 22.177580 -249.918289 -8.045874 4.793894 68.903275 252.381180
60 27.299461 22.177580 -249.918289 -8.527295 5.194446 68.536537 252.381180
[R_mid_tent01]
59 23.228794 24.509907 226.238495 -176.140793 -10.379772 66.016167 228.744751
60 23.228794 24.509907 226.238495 -176.144623 -10.071887 66.038834 228.744751
[spine01]
59 -0.361383 -0.195265 0.000000 -0.000001 -0.000007 22.052340 0.410763
60 -0.361383 -0.195265 0.000000 -0.000001 -0.000007 22.052340 0.410763
[Bip01_Neck]
59 165.484543 71.581718 0.000119 175.896118 1.177290 24.871183 180.302734
60 165.484543 71.581718 0.000119 175.896118 1.177290 24.871183 180.302734
[L_humerus]
59 -13.983130 -135.272980 -120.471481 -168.517593 36.033752 -113.483025 181.680161
60 -13.983130 -135.272980 -120.471481 -168.517593 36.033752 -113.483025 181.680161
[R_humerus]
59 -13.983309 -135.273102 125.287651 -179.588654 -28.895136 -122.030510 184.909012
60 -13.983309 -135.273102 125.287651 -179.588654 -28.895136 -122.030510 184.909012
[weapon_bone]
59 235.964890 -300.705902 0.000000 0.000000 -89.951546 -128.212341 382.234833
60 235.964890 -300.705902 0.000000 0.000000 -89.951546 -128.212341 382.234833
[Bip01_Head]
59 189.519958 179.130234 22.124935 -23.626308 5.787232 14.654977 261.715424
60 189.519958 179.130234 22.124937 -23.626308 5.787232 14.654977 261.715424
[eye_left_bone]
59 -24.626970 125.451866 -64.772606 0.000000 -90.000000 -99.840431 143.318359
60 -24.626970 125.451866 -64.772606 0.000000 -90.000000 -99.840431 143.318359
[eye_right_bone]
59 -24.626970 125.451866 64.327362 0.000000 -89.965736 80.156380 143.117676
60 -24.626970 125.451866 64.327362 0.000000 -89.965736 80.156380 143.117676
[L_forearm]
59 322.776093 0.000000 -0.000119 0.000017 0.002347 -89.149834 322.776093
60 322.776093 0.000000 -0.000119 0.000017 0.002347 -89.149834 322.776093
[L_front_hand]
59 241.149185 -0.042021 -3.300071 -179.659958 -2.242151 -0.019832 241.171753
60 241.149185 -0.042021 -3.300071 -179.659958 -2.242151 -0.019832 241.171753
[L_weapon_bone]
59 156.183838 0.000000 0.000000 0.000014 0.000007 0.000001 156.183838
60 156.183838 0.000000 0.000000 0.000014 0.000007 0.000001 156.183838
[L_front_hand01_01]
59 86.095154 20.947098 -0.655860 -0.366594 -0.477154 75.385574 88.609184
60 86.095154 20.947098 -0.655860 -0.366594 -0.477154 75.385574 88.609184
[L_front_hand02_01]
59 86.935165 -11.437475 24.513514 154.399796 -59.883835 -61.369587 91.046425
60 86.935165 -11.437475 24.513514 154.399796 -59.883835 -61.369587 91.046425
[L_front_hand03_01]
59 86.637497 -14.123976 -20.424902 -153.913849 58.118122 -62.702866 90.126129
60 86.637497 -14.123976 -20.424902 -153.913849 58.118122 -62.702866 90.126129
[L_front_hand01_02]
59 71.020905 -0.000179 0.000030 0.000334 -0.002323 -106.379684 71.020905
60 71.020905 -0.000179 0.000030 0.000334 -0.002323 -106.379684 71.020905
[L_front_hand02_02]
59 71.020927 -0.000119 0.000060 0.000334 -0.002323 -106.379684 71.020927
60 71.020927 -0.000119 0.000060 0.000334 -0.002323 -106.379684 71.020927
[L_front_hand03_02]
59 71.020905 -0.000060 0.000060 0.000334 -0.002323 -106.379684 71.020905
60 71.020905 -0.000060 0.000060 0.000334 -0.002323 -106.379684 71.020905
[R_forearm]
59 322.776428 -0.000060 0.000030 0.213197 0.007525 -93.425262 322.776428
60 322.776428 -0.000060 0.000030 0.213197 0.007525 -93.425262 322.776428
[R_front_hand]
59 238.847015 -0.006795 2.210259 -0.270529 1.703932 2.322530 238.857239
60 238.847015 -0.006795 2.210259 -0.270529 1.703932 2.322530 238.857239
[R_weapon_bone]
59 155.664093 0.002503 -0.000030 0.003487 0.001180 -90.988930 155.664078
60 155.664093 0.002503 -0.000030 0.003487 0.001180 -90.988930 155.664078
[R_front_hand01_01]
59 87.624611 14.231146 22.918642 -154.633499 -59.950619 61.746044 91.683487
60 87.624611 14.231146 22.918642 -154.633499 -59.950619 61.746044 91.683487
[R_front_hand02_01]
59 89.356956 14.367283 -19.491137 154.602661 58.302849 63.744389 92.579636
60 89.356956 14.367283 -19.491137 154.602661 58.302849 63.744389 92.579636
[R_front_hand03_01]
59 87.286232 -22.307278 -0.143439 0.162155 -0.423168 -75.767921 90.091743
60 87.286232 -22.307278 -0.143439 0.162155 -0.423168 -75.767921 90.091743
[R_front_hand01_02]
59 71.020905 0.000060 0.000119 0.002323 -0.000334 106.381714 71.020905
60 71.020905 0.000060 0.000119 0.002323 -0.000334 106.381714 71.020905
[R_front_hand02_02]
59 71.020844 -0.000030 -0.000119 0.002323 -0.000334 106.381714 71.020836
60 71.020844 -0.000030 -0.000119 0.002323 -0.000334 106.381714 71.020836
[R_front_hand03_02]
59 71.020905 0.000000 0.000030 0.002323 -0.000334 106.381714 71.020905
60 71.020905 0.000000 0.000030 0.002323 -0.000334 106.381714 71.020905
[null_rope01_connect]
59 328.732483 0.000000 -0.000238 144.686996 -63.654114 -147.972610 328.732483
60 328.732483 0.000000 -0.000238 144.291183 -63.067604 -147.508835 328.732483
[Rope1_Seg01]
59 0.000000 0.000000 0.000000 151.791183 51.280418 -172.524796 0.000000
60 0.000000 0.000000 0.000000 151.085022 51.613503 -173.618332 0.000000
[Rope1_Seg02]
59 139.999863 -0.000179 0.000000 7.570179 0.395277 -10.659058 139.999863
60 139.999863 -0.000179 0.000000 7.537900 0.427197 -10.885898 139.999863
[Rope1_Seg03]
59 139.999924 0.000060 -0.000060 16.433062 -1.777159 -13.935774 139.999924
60 139.999924 0.000060 -0.000060 16.556265 -1.782307 -14.288050 139.999924
[Rope1_Seg04]
59 139.999924 -0.000060 -0.000119 34.109028 -9.213212 -17.605944 139.999924
60 139.999924 -0.000060 -0.000119 34.338322 -9.281340 -17.950291 139.999924
[Rope1_Seg05]
59 139.999832 0.000119 -0.000060 4.465388 1.324801 -4.962409 139.999832
60 139.999832 0.000119 -0.000060 3.759832 1.558246 -4.719223 139.999832
[Rope1_Seg06]
59 139.999954 0.000119 -0.000060 -12.042789 7.649031 -1.728427 139.999954
60 139.999954 0.000119 -0.000060 -12.990262 7.981766 -1.412454 139.999954
[Rope1_Seg07]
59 139.999985 0.000060 0.000000 -2.466191 2.056676 -1.061843 139.999985
60 139.999985 0.000060 0.000000 -3.008456 2.184973 -0.891998 139.999985
[Rope1_Seg09]
59 121.602913 0.000119 -0.000089 -89.793175 -1.359789 0.847147 121.602913
60 121.602913 0.000119 -0.000089 -89.793175 -1.359789 0.847147 121.602913
[L_mid_hand01]
59 103.859421 1.038730 8.195221 106.855484 -31.239275 -9.461397 104.187431
60 103.859421 1.038730 8.195221 106.855484 -31.239275 -9.461397 104.187431
[L_mid_hand02]
59 105.572853 -4.139662 -10.864139 -142.331345 25.752670 -28.774628 106.211075
60 105.572853 -4.139662 -10.864139 -142.331345 25.752670 -28.774628 106.211075
[L_mid_hand03]
59 104.641464 17.579376 -3.913581 -16.122810 9.734291 34.223598 106.179977
60 104.641464 17.579376 -3.913581 -16.122810 9.734291 34.223598 106.179977
[null_rope02_connect]
59 328.732849 0.000179 -0.000119 -25.139072 82.588890 154.360916 328.732849
60 328.732849 0.000179 -0.000119 -23.821016 82.308464 155.871613 328.732849
[Rope2_Seg01]
59 0.000076 0.000112 0.000153 46.244755 79.887260 160.421570 0.000204
60 0.000076 0.000112 0.000153 45.330208 80.048355 159.457596 0.000204
[Rope2_Seg02]
59 139.999741 -0.000060 -0.000119 -1.650046 10.920676 4.356715 139.999756
60 139.999741 -0.000060 -0.000119 -1.679577 11.036401 4.367551 139.999756
[Rope2_Seg03]
59 140.000107 0.000030 0.000000 -5.513890 17.792433 8.349105 140.000107
60 140.000107 0.000030 0.000000 -5.667459 18.079512 8.405226 140.000107
[Rope2_Seg04]
59 139.999802 0.000000 -0.000060 -9.397024 15.538474 9.117677 139.999802
60 139.999802 0.000000 -0.000060 -9.562509 15.505321 9.138820 139.999802
[Rope2_Seg05]
59 139.999985 -0.000060 0.000119 2.542945 -1.305438 -2.867314 139.999985
60 139.999985 -0.000060 0.000119 2.637735 -1.535879 -2.858979 139.999985
[Rope2_Seg06]
59 139.999893 -0.000030 -0.000119 -0.044272 0.590096 -0.275531 139.999893
60 139.999893 -0.000030 -0.000119 -0.053793 0.520855 -0.231033 139.999893
[Rope2_Seg07]
59 139.999893 0.000060 -0.000060 -0.275195 0.610031 0.019978 139.999893
60 139.999893 0.000060 -0.000060 -0.275086 0.550742 0.044850 139.999893
[Rope2_Seg09]
59 121.338966 0.000089 -0.000060 33.793236 -1.359788 -0.847141 121.338966
60 121.338966 0.000089 -0.000060 33.793236 -1.359788 -0.847141 121.338966
[R_mid_hand01]
59 104.680779 11.144459 -10.335981 -41.523792 25.424656 28.595957 105.778534
60 104.680779 11.144459 -10.335981 -41.523792 25.424656 28.595957 105.778534
[R_mid_hand02]
59 104.070427 2.443552 8.231699 72.847389 -32.746803 10.013901 104.424065
60 104.070427 2.443552 8.231699 72.847389 -32.746803 10.013901 104.424065
[R_mid_hand03]
59 106.028137 -11.221827 -5.996406 -167.901306 10.259192 -37.009720 106.788818
60 106.028137 -11.221827 -5.996406 -167.901306 10.259192 -37.009720 106.788818
[spine02]
59 129.756927 0.001550 0.000119 -0.245322 -4.052060 -4.355547 129.756927
60 129.756927 0.001550 0.000119 -0.245322 -4.052060 -4.355547 129.756927
[spine03]
59 78.613846 0.087372 -4.898873 0.207412 -2.089717 -0.432471 78.766380
60 78.613846 0.087372 -4.898873 0.207412 -2.089717 -0.432471 78.766380
[pelvis]
59 169.435242 0.051022 0.000000 -0.010007 -0.191417 -1.897554 169.435257
60 169.435242 0.051022 0.000000 -0.010007 -0.191417 -1.897554 169.435257
[null_rope03_connect]
59 -1.257226 -2.466202 137.391083 137.794205 -72.501122 -87.202362 137.418976
60 -1.257226 -2.466202 137.391083 137.776337 -72.528587 -87.389915 137.418976
[null_rope04_connect]
59 -1.259640 -2.480268 -137.844437 137.794205 -72.501122 -87.202362 137.872513
60 -1.259640 -2.480268 -137.844437 137.776337 -72.528587 -87.389915 137.872513
[Rope3_Seg01]
59 0.000000 0.000000 0.000000 154.416351 69.435074 -141.215149 0.000000
60 0.000000 0.000000 0.000000 155.281723 69.103905 -140.559402 0.000000
[Rope3_Seg02]
59 139.999924 -0.000119 0.000060 9.265422 13.204558 -2.845274 139.999924
60 139.999924 -0.000119 0.000060 9.476857 13.414338 -2.934426 139.999924
[Rope3_Seg03]
59 139.999924 -0.000119 0.000119 16.575117 20.140656 -5.216404 139.999924
60 139.999924 -0.000119 0.000119 16.780615 20.277149 -5.248710 139.999924
[Rope3_Seg04]
59 139.999924 0.000119 0.000000 14.100131 14.806892 -11.138198 139.999924
60 139.999924 0.000119 0.000000 13.637795 14.085169 -11.103636 139.999924
[Rope3_Seg05]
59 139.999924 -0.000238 0.000060 -5.746162 -16.833998 -4.936396 139.999924
60 139.999924 -0.000238 0.000060 -5.666756 -17.090683 -5.207675 139.999924
[Rope3_Seg06]
59 139.999893 -0.000119 -0.000060 -1.686607 -12.137681 -4.625376 139.999893
60 139.999893 -0.000119 -0.000060 -1.504993 -11.894845 -4.835882 139.999893
[Rope3_Seg07]
59 139.999771 0.000060 -0.000119 0.148803 -5.968791 -3.676452 139.999771
60 139.999771 0.000060 -0.000119 0.193388 -5.878178 -3.732978 139.999771
[Rope3_Seg08]
59 139.999985 -0.000060 0.000000 0.438371 -3.621269 -2.229123 139.999985
60 139.999985 -0.000060 0.000000 0.452824 -3.561517 -2.254057 139.999985
[Rope3_Seg09]
59 90.185997 -0.000179 -0.000060 89.793228 -1.359877 -0.847183 90.185997
60 90.185997 -0.000179 -0.000060 89.793228 -1.359877 -0.847183 90.185997
[R_rear_hand01]
59 103.366196 -6.073594 -10.757982 -161.551193 16.666374 -30.088671 104.101845
60 103.366196 -6.073594 -10.757982 -161.551193 16.666374 -30.088671 104.101845
[R_rear_hand02]
59 100.509819 12.039542 -7.992327 -34.280552 19.289745 28.875523 101.543350
60 100.509819 12.039542 -7.992327 -34.280552 19.289745 28.875523 101.543350
[R_rear_hand03]
59 101.539970 5.215704 5.435467 83.366440 -30.933914 7.284830 101.819031
60 101.539970 5.215704 5.435467 83.366440 -30.933914 7.284830 101.819031
[Rope4_Seg01]
59 0.000010 0.000038 -0.000114 -6.775275 62.902233 -171.283997 0.000121
60 0.000010 0.000038 -0.000114 -7.819037 63.533020 -172.333679 0.000121
[Rope4_Seg02]
59 139.999985 0.000060 0.000119 1.357782 -3.397579 11.236757 139.999985
60 139.999985 0.000060 0.000119 1.279292 -3.529482 11.267746 139.999985
[Rope4_Seg03]
59 139.999924 0.000000 -0.000238 0.942418 -4.858658 15.773580 139.999924
60 139.999924 0.000000 -0.000238 0.858607 -5.042989 15.851746 139.999924
[Rope4_Seg04]
59 139.999985 0.000000 0.000119 -0.107403 -5.670130 18.452581 139.999985
60 139.999985 0.000000 0.000119 -0.200326 -6.033773 18.807154 139.999985
[Rope4_Seg05]
59 139.999802 -0.000060 -0.000119 0.050988 5.476899 -3.006668 139.999802
60 139.999802 -0.000060 -0.000119 0.060907 5.347792 -2.654464 139.999802
[Rope4_Seg06]
59 139.999924 0.000000 0.000060 0.407855 7.901258 -8.788336 139.999924
60 139.999924 0.000000 0.000060 0.416824 8.147146 -8.957238 139.999924
[Rope4_Seg07]
59 139.999802 0.000000 0.000000 0.643633 4.356391 -3.429017 139.999802
60 139.999802 0.000000 0.000000 0.669620 4.451415 -3.452350 139.999802
[Rope4_Seg08]
59 139.999924 0.000000 0.000119 -0.955282 2.945328 -2.383018 139.999924
60 139.999924 0.000000 0.000119 -0.932653 3.014885 -2.407777 139.999924
[Rope4_Seg09]
59 90.185791 0.000060 0.000060 -135.617828 2.228885 0.850567 90.185791
60 90.185791 0.000060 0.000060 -135.617828 2.228885 0.850567 90.185791
[L_rear_hand01]
59 101.696655 -8.392275 -7.654577 -34.454281 -18.946800 151.655121 102.329041
60 101.696655 -8.392275 -7.654577 -34.454281 -18.946800 151.655121 102.329041
[L_rear_hand02]
59 102.726799 -1.568258 5.773216 83.407906 30.330435 172.796509 102.900848
60 102.726799 -1.568258 5.773216 83.407906 30.330435 172.796509 102.900848
[L_rear_hand03]
59 104.552910 9.721220 -10.420293 -161.379868 -16.473232 -150.512238 105.519653
60 104.552910 9.721220 -10.420293 -161.379868 -16.473232 -150.512238 105.519653
